External Loads File
version=1
nRows=54
nColumns=13
Range=5.000000e-03-10 seconds
endheader
time 	forceRightX 	forceRightY 	forceRightZ 	pointRightX 	pointRightY 	pointRightZ 	forceLeftX 	forceLeftY 	forceLeftZ 	pointLeftX 	pointLeftY 	pointLeftZ 		
5.005000 33.137723 581.458125 -0.000000 0.421068 0.377562 -0.166986 42.478112 -123.971216 -0.000000 0.133548 0.232774 -0.413245
5.010000 20.875921 593.150380 -0.000000 0.423750 0.367339 -0.167024 28.146034 -135.606297 -0.000000 0.131968 0.242184 -0.412987
5.015000 8.366264 600.006313 -0.000000 0.425919 0.356956 -0.167020 15.446705 -141.683858 -0.000000 0.130955 0.251815 -0.412844
5.020000 -3.642870 603.345643 -0.000000 0.427615 0.346371 -0.166961 4.925109 -143.355968 -0.000000 0.130365 0.261635 -0.412655
5.025000 -13.865523 604.724788 -0.000000 0.429126 0.335426 -0.167459 -3.180216 -141.843591 -0.000000 0.130182 0.271854 -0.412554
5.030000 -23.061715 605.659819 -0.000000 0.430032 0.324333 -0.167290 -8.427465 -138.251947 -0.000000 0.130504 0.282196 -0.412299
5.035000 -30.379596 607.436509 -0.000000 0.430335 0.313156 -0.167456 -11.022555 -133.457082 -0.000000 0.131304 0.292816 -0.412133
5.040000 -36.893011 610.858190 -0.000000 0.430013 0.301994 -0.166759 -10.934241 -128.077169 -0.000000 0.132664 0.302953 -0.411976
5.045000 -40.315573 616.518466 -0.000000 0.428824 0.291020 -0.167164 -9.012512 -122.422292 -0.000000 0.134594 0.313514 -0.411880
5.050000 -39.869704 624.656175 -0.000000 0.427201 0.279434 -0.167094 -5.845914 -116.668442 -0.000000 0.137095 0.323822 -0.411804
5.055000 -37.824366 635.106640 -0.000000 0.425104 0.268573 -0.167447 -1.464710 -110.940736 -0.000000 0.140156 0.334029 -0.411781
5.060000 -31.586413 647.866060 -0.000000 0.422094 0.257892 -0.167271 3.252095 -105.329356 -0.000000 0.143919 0.344570 -0.411767
5.065000 -24.669606 662.493926 -0.000000 0.418547 0.247368 -0.167127 8.525597 -99.962310 -0.000000 0.148010 0.354017 -0.411921
5.070000 -14.645834 678.809151 -0.000000 0.414262 0.237141 -0.166884 13.626150 -95.011967 -0.000000 0.152788 0.363448 -0.411992
5.075000 -2.086326 696.454150 -0.000000 0.409452 0.227208 -0.166638 18.315440 -90.631226 -0.000000 0.158141 0.372792 -0.412096
5.080000 12.630907 715.075097 -0.000000 0.404037 0.217531 -0.166418 22.281423 -86.911576 -0.000000 0.164049 0.381841 -0.412195
5.085000 29.065824 734.305765 -0.000000 0.398098 0.208093 -0.166143 25.239136 -83.890559 -0.000000 0.170526 0.390420 -0.412278
5.090000 47.673515 753.728719 -0.000000 0.391538 0.199108 -0.165464 26.891117 -81.609586 -0.000000 0.177517 0.398917 -0.412270
5.095000 67.073993 773.009150 -0.000000 0.384548 0.190484 -0.165326 27.242808 -80.009834 -0.000000 0.184943 0.406784 -0.412215
5.100000 87.354471 791.729146 -0.000000 0.377153 0.182518 -0.165069 26.213364 -79.066152 -0.000000 0.192792 0.414365 -0.412204
5.105000 108.571688 809.409483 -0.000000 0.369451 0.174699 -0.164893 23.763680 -78.765457 -0.000000 0.201113 0.421265 -0.412164
5.110000 130.668281 825.504086 -0.000000 0.361318 0.167675 -0.164659 19.848061 -79.058355 -0.000000 0.209916 0.427846 -0.412034
5.115000 152.474199 839.549362 -0.000000 0.352934 0.161108 -0.164453 14.531063 -79.785596 -0.000000 0.218882 0.433741 -0.412000
5.120000 174.822594 850.650700 -0.000000 0.344246 0.155017 -0.163834 7.756873 -80.762931 -0.000000 0.228226 0.439137 -0.411850
5.125000 197.408027 858.000361 -0.000000 0.335350 0.149370 -0.163386 -0.324669 -81.722429 -0.000000 0.237969 0.444030 -0.411658
5.130000 219.337349 860.903465 -0.000000 0.326198 0.144555 -0.162970 -9.414236 -82.373962 -0.000000 0.247904 0.448304 -0.411561
5.135000 240.382448 858.553146 -0.000000 0.316855 0.140373 -0.162624 -19.209435 -82.465176 -0.000000 0.258017 0.451866 -0.411488
5.140000 260.189118 850.266344 -0.000000 0.307442 0.136938 -0.162337 -29.388848 -81.776900 -0.000000 0.268367 0.454993 -0.411369
5.145000 278.262133 835.553319 -0.000000 0.297865 0.133942 -0.162141 -39.635496 -80.075296 -0.000000 0.278819 0.457313 -0.411181
5.150000 293.673327 814.299363 -0.000000 0.288179 0.131752 -0.161980 -49.586861 -77.144887 -0.000000 0.289205 0.459163 -0.411047
5.155000 306.317819 786.420817 -0.000000 0.278401 0.130396 -0.161829 -58.940241 -72.776867 -0.000000 0.299601 0.460338 -0.410995
5.160000 315.904348 752.183311 -0.000000 0.268613 0.129739 -0.161661 -67.353557 -66.806457 -0.000000 0.310074 0.461051 -0.410792
5.165000 321.326448 712.427429 -0.000000 0.258750 0.129873 -0.161486 -74.401092 -59.187751 -0.000000 0.320003 0.461010 -0.410966
5.170000 323.564616 667.171560 -0.000000 0.248750 0.130569 -0.161413 -79.843605 -49.724397 -0.000000 0.329876 0.460492 -0.410945
5.175000 321.456852 617.346771 -0.000000 0.239185 0.131876 -0.161503 -83.292974 -38.450486 -0.000000 0.339612 0.459414 -0.411181
5.180000 315.392348 563.068873 -0.000000 0.229706 0.134067 -0.161428 -84.551590 -25.179293 -0.000000 0.348823 0.457561 -0.411347
5.185000 305.206202 504.661374 -0.000000 0.220492 0.136835 -0.161456 -83.476805 -9.700213 -0.000000 0.357681 0.455108 -0.411685
5.190000 290.514714 442.723521 -0.000000 0.211705 0.140582 -0.161492 -80.025654 8.274492 -0.000000 0.365922 0.452330 -0.412177
5.195000 271.310284 378.029164 -0.000000 0.203454 0.144828 -0.161494 -74.283984 29.217282 -0.000000 0.373415 0.448895 -0.412699
5.200000 248.361543 311.315324 -0.000000 0.195631 0.149612 -0.161363 -66.426578 53.826175 -0.000000 0.380274 0.444804 -0.413342
5.205000 222.164837 243.964036 -0.000000 0.188275 0.154943 -0.160956 -56.767228 82.746294 -0.000000 0.386403 0.440218 -0.413880
5.210000 194.080142 176.907365 -0.000000 0.180464 0.160635 -0.161358 -45.434773 116.724456 -0.000000 0.391772 0.434641 -0.414395
5.215000 164.033519 112.741488 -0.000000 0.173798 0.167158 -0.161533 -33.572778 155.932251 -0.000000 0.396347 0.429603 -0.414689
5.220000 133.707916 52.372141 -0.000000 0.167626 0.173935 -0.161565 -21.989622 200.689347 -0.000000 0.400099 0.424362 -0.414905
5.225000 104.208157 -3.266018 -0.000000 0.161909 0.181264 -0.161794 -11.440204 250.950790 -0.000000 0.403227 0.418646 -0.415117
5.230000 76.023982 -53.299268 -0.000000 0.156491 0.188985 -0.161874 -2.419625 306.204479 -0.000000 0.406298 0.412180 -0.415591
5.235000 49.289439 -96.792198 -0.000000 0.151922 0.197427 -0.161777 4.227516 365.292643 -0.000000 0.409022 0.404798 -0.415817
5.240000 24.011884 -133.083976 -0.000000 0.147814 0.205956 -0.162071 8.212326 426.374672 -0.000000 0.411734 0.396455 -0.416016
5.245000 0.418759 -161.694051 -0.000000 0.144193 0.214595 -0.162224 9.269564 487.012766 -0.000000 0.414336 0.387494 -0.416091
5.250000 -21.145815 -182.483589 -0.000000 0.141171 0.223629 -0.162333 7.852920 544.426041 -0.000000 0.416714 0.378094 -0.416123
5.255000 -39.937512 -195.722085 -0.000000 0.138523 0.232603 -0.162411 3.919540 595.965673 -0.000000 0.418852 0.368397 -0.416040
5.260000 -55.439238 -202.059248 -0.000000 0.136483 0.241893 -0.162461 -1.799522 639.584100 -0.000000 0.420548 0.358436 -0.416001
5.265000 -67.499787 -202.357076 -0.000000 0.134367 0.251405 -0.162813 -7.887163 674.156041 -0.000000 0.422262 0.348114 -0.415849
5.270000 -75.542542 -197.845654 -0.000000 0.133159 0.261271 -0.162778 -15.176238 699.507586 -0.000000 0.423506 0.337642 -0.415772
